<svg width="815" height="582" viewBox="0 0 815 582" fill="none" xmlns="http://www.w3.org/2000/svg">
<g filter="url(#filter0_d_2467_13683)">
<path d="M6.22971 725.434C0.624707 675.841 24.8079 570.057 166.381 543.664C343.347 510.673 481.893 410.779 532.215 286.159C582.537 161.538 690.542 8.63213 813.769 1.88851C912.351 -3.50638 979.927 48.6331 1001.39 75.3772L850.062 828.196L6.22971 725.434Z" fill="url(#paint0_linear_2467_13683)"/>
<path d="M6.22971 725.434C0.624707 675.841 24.8079 570.057 166.381 543.664C343.347 510.673 481.893 410.779 532.215 286.159C582.537 161.538 690.542 8.63213 813.769 1.88851C912.351 -3.50638 979.927 48.6331 1001.39 75.3772L850.062 828.196L6.22971 725.434Z" stroke="black" stroke-width="3" stroke-linecap="round"/>
</g>
<defs>
<filter id="filter0_d_2467_13683" x="0" y="0" width="1007" height="837.853" filterUnits="userSpaceOnUse" color-interpolation-filters="sRGB">
<feFlood flood-opacity="0" result="BackgroundImageFix"/>
<feColorMatrix in="SourceAlpha" type="matrix" values="0 0 0 0 0 0 0 0 0 0 0 0 0 0 0 0 0 0 127 0" result="hardAlpha"/>
<feOffset dy="4"/>
<feGaussianBlur stdDeviation="2"/>
<feComposite in2="hardAlpha" operator="out"/>
<feColorMatrix type="matrix" values="0 0 0 0 0 0 0 0 0 0 0 0 0 0 0 0 0 0 0.25 0"/>
<feBlend mode="normal" in2="BackgroundImageFix" result="effect1_dropShadow_2467_13683"/>
<feBlend mode="normal" in="SourceGraphic" in2="effect1_dropShadow_2467_13683" result="shape"/>
</filter>
<linearGradient id="paint0_linear_2467_13683" x1="547.177" y1="-29.1699" x2="461.932" y2="787.692" gradientUnits="userSpaceOnUse">
<stop stop-color="#0EDA8F"/>
<stop offset="1" stop-color="#B1A0EA"/>
</linearGradient>
</defs>
</svg>
